<svg width="20" height="21" viewBox="0 0 20 21" fill="none" xmlns="http://www.w3.org/2000/svg">
<g clip-path="url(#clip0_471_622)">
<path d="M10.8332 17.1667C11.9378 17.1654 12.9969 16.7259 13.778 15.9448C14.5591 15.1637 14.9985 14.1047 14.9998 13V5.70251C15.0011 5.26448 14.9155 4.83055 14.7478 4.42586C14.5802 4.02118 14.3339 3.6538 14.0232 3.34501L12.1548 1.47668C11.8461 1.16599 11.4787 0.919684 11.074 0.752031C10.6693 0.584379 10.2354 0.498718 9.79734 0.500014H5.83317C4.72851 0.501338 3.66947 0.940749 2.88835 1.72186C2.10724 2.50298 1.66783 3.56202 1.6665 4.66668V13C1.66783 14.1047 2.10724 15.1637 2.88835 15.9448C3.66947 16.7259 4.72851 17.1654 5.83317 17.1667H10.8332ZM3.33317 13V4.66668C3.33317 4.00364 3.59656 3.36776 4.0654 2.89891C4.53424 2.43007 5.17013 2.16668 5.83317 2.16668C5.83317 2.16668 9.93234 2.17835 9.99984 2.18668V3.83335C9.99984 4.27538 10.1754 4.6993 10.488 5.01186C10.8006 5.32442 11.2245 5.50001 11.6665 5.50001H13.3132C13.3215 5.56751 13.3332 13 13.3332 13C13.3332 13.6631 13.0698 14.2989 12.6009 14.7678C12.1321 15.2366 11.4962 15.5 10.8332 15.5H5.83317C5.17013 15.5 4.53424 15.2366 4.0654 14.7678C3.59656 14.2989 3.33317 13.6631 3.33317 13ZM18.3332 7.16668V16.3333C18.3318 17.438 17.8924 18.4971 17.1113 19.2782C16.3302 20.0593 15.2712 20.4987 14.1665 20.5H6.6665C6.44549 20.5 6.23353 20.4122 6.07725 20.2559C5.92097 20.0997 5.83317 19.8877 5.83317 19.6667C5.83317 19.4457 5.92097 19.2337 6.07725 19.0774C6.23353 18.9211 6.44549 18.8333 6.6665 18.8333H14.1665C14.8295 18.8333 15.4654 18.57 15.9343 18.1011C16.4031 17.6323 16.6665 16.9964 16.6665 16.3333V7.16668C16.6665 6.94567 16.7543 6.73371 16.9106 6.57743C17.0669 6.42115 17.2788 6.33335 17.4998 6.33335C17.7209 6.33335 17.9328 6.42115 18.0891 6.57743C18.2454 6.73371 18.3332 6.94567 18.3332 7.16668Z" fill="#222222"/>
</g>
<defs>
<clipPath id="clip0_471_622">
<rect width="20" height="20" fill="white" transform="translate(0 0.5)"/>
</clipPath>
</defs>
</svg>
