<svg width="20" height="21" viewBox="0 0 20 21" fill="none" xmlns="http://www.w3.org/2000/svg">
<g clip-path="url(#clip0_471_632)">
<path d="M0.833504 18.8334C1.29184 18.8334 1.66684 18.4584 1.66684 18V11.3334C1.66684 9.95837 2.79184 8.83337 4.16684 8.83337H17.8502L13.5668 13.25C13.2502 13.5834 13.2585 14.1084 13.5835 14.425C13.6617 14.5012 13.7541 14.5612 13.8555 14.6016C13.9569 14.642 14.0653 14.662 14.1745 14.6604C14.2836 14.6589 14.3914 14.6358 14.4916 14.5926C14.5918 14.5493 14.6825 14.4867 14.7585 14.4084L19.2668 9.76671C19.7342 9.29973 19.9975 8.66659 19.999 8.00593C20.0006 7.34526 19.7403 6.71089 19.2752 6.24171L14.7668 1.58337C14.6002 1.41671 14.3835 1.33337 14.1668 1.33337C13.9502 1.33337 13.7502 1.40837 13.5835 1.56671C13.2502 1.88338 13.2418 2.41671 13.5668 2.74171L17.8502 7.15837H4.16684C1.86684 7.15837 0.000169754 9.02504 0.000169754 11.325V18C0.000169754 18.4584 0.37517 18.8334 0.833504 18.8334Z" fill="#222222"/>
</g>
<defs>
<clipPath id="clip0_471_632">
<rect width="20" height="20" fill="white" transform="matrix(-1 0 0 -1 20 20.5)"/>
</clipPath>
</defs>
</svg>
