<svg width="15" height="16" viewBox="0 0 15 16" fill="none" xmlns="http://www.w3.org/2000/svg">
<g clip-path="url(#clip0_472_711)">
<path d="M6.56247 11.125C6.39812 11.1251 6.23536 11.0928 6.0835 11.03C5.93164 10.9672 5.79367 10.875 5.67747 10.7587L3.31247 8.44687C3.19395 8.33084 3.12638 8.17248 3.12462 8.00663C3.12287 7.84077 3.18707 7.68102 3.3031 7.5625C3.41913 7.44398 3.57749 7.37641 3.74334 7.37465C3.9092 7.37289 4.06895 7.43709 4.18747 7.55312L6.5581 9.87L10.8118 5.6825C10.9318 5.57695 11.0876 5.52135 11.2473 5.52713C11.407 5.5329 11.5584 5.59961 11.6704 5.71355C11.7824 5.82749 11.8465 5.98 11.8496 6.13975C11.8527 6.2995 11.7944 6.45435 11.6868 6.5725L7.44122 10.7644C7.32566 10.8793 7.18856 10.9703 7.03777 11.0322C6.88698 11.0941 6.72546 11.1256 6.56247 11.125ZM15 12.375V8.2125C15.0233 6.2859 14.3169 4.4218 13.0227 2.99448C11.7284 1.56715 9.94215 0.68227 8.02247 0.517496C6.951 0.442532 5.87593 0.598583 4.86999 0.975092C3.86406 1.3516 2.95073 1.93978 2.19179 2.69984C1.43286 3.4599 0.846035 4.3741 0.471019 5.38059C0.0960023 6.38709 -0.058455 7.46239 0.0180972 8.53375C0.294347 12.505 3.80122 15.5 8.17685 15.5H11.875C12.7035 15.499 13.4977 15.1694 14.0836 14.5836C14.6694 13.9978 14.999 13.2035 15 12.375ZM7.93747 1.765C9.54151 1.90689 11.0324 2.65057 12.1107 3.84659C13.1889 5.04262 13.7745 6.60238 13.75 8.2125V12.375C13.75 12.8723 13.5524 13.3492 13.2008 13.7008C12.8492 14.0525 12.3723 14.25 11.875 14.25H8.17685C4.4056 14.25 1.49997 11.8125 1.2656 8.4475C1.20407 7.59036 1.31996 6.72974 1.60602 5.91941C1.89209 5.10908 2.34219 4.36645 2.92821 3.73792C3.51422 3.10938 4.22355 2.60844 5.01189 2.2664C5.80023 1.92436 6.65063 1.74856 7.50997 1.75C7.65185 1.75 7.79497 1.75562 7.93747 1.765Z" fill="#222222"/>
</g>
<defs>
<clipPath id="clip0_472_711">
<rect width="15" height="15" fill="white" transform="translate(0 0.5)"/>
</clipPath>
</defs>
</svg>
