<svg width="26" height="25" viewBox="0 0 26 25" fill="none" xmlns="http://www.w3.org/2000/svg">
<g clip-path="url(#clip0_472_778)">
<path d="M11.4375 17.7083C11.1636 17.7085 10.8923 17.6547 10.6392 17.55C10.3861 17.4452 10.1562 17.2916 9.96249 17.0979L6.02083 13.2448C5.8233 13.0514 5.71068 12.7874 5.70775 12.511C5.70482 12.2346 5.81182 11.9683 6.0052 11.7708C6.19859 11.5733 6.46253 11.4607 6.73895 11.4577C7.01537 11.4548 7.28163 11.5618 7.47916 11.7552L11.4302 15.6166L18.5198 8.63747C18.7197 8.46156 18.9794 8.3689 19.2455 8.37853C19.5117 8.38815 19.764 8.49933 19.9507 8.68923C20.1374 8.87912 20.2443 9.13331 20.2494 9.39956C20.2545 9.66581 20.1574 9.9239 19.9781 10.1208L12.9021 17.1073C12.7095 17.2988 12.481 17.4505 12.2297 17.5537C11.9783 17.6568 11.7091 17.7094 11.4375 17.7083ZM25.5 19.7916V12.8541C25.5389 9.64315 24.3616 6.53632 22.2045 4.15744C20.0474 1.77857 17.0703 0.303762 13.8708 0.0291399C12.085 -0.0958001 10.2933 0.164285 8.6167 0.791799C6.94014 1.41931 5.41792 2.39961 4.15303 3.66638C2.88814 4.93314 1.9101 6.45681 1.28507 8.1343C0.660045 9.81179 0.402616 11.604 0.530203 13.3896C0.990619 20.0083 6.83541 25 14.1281 25H20.2917C21.6725 24.9983 22.9963 24.4491 23.9727 23.4727C24.9491 22.4963 25.4983 21.1725 25.5 19.7916ZM13.7292 2.10831C16.4026 2.3448 18.8874 3.58426 20.6845 5.57763C22.4815 7.57101 23.4576 10.1706 23.4167 12.8541V19.7916C23.4167 20.6204 23.0874 21.4153 22.5014 22.0014C21.9153 22.5874 21.1205 22.9166 20.2917 22.9166H14.1281C7.8427 22.9166 2.99999 18.8541 2.60937 13.2458C2.50682 11.8172 2.69997 10.3829 3.17675 9.03234C3.65353 7.68179 4.4037 6.44407 5.38038 5.39651C6.35707 4.34894 7.53929 3.51405 8.85319 2.94398C10.1671 2.37391 11.5844 2.08092 13.0167 2.08331C13.2531 2.08331 13.4917 2.09268 13.7292 2.10831Z" fill="#222222"/>
</g>
<defs>
<clipPath id="clip0_472_778">
<rect width="25" height="25" fill="white" transform="translate(0.5)"/>
</clipPath>
</defs>
</svg>
