<svg width="25" height="26" viewBox="0 0 25 26" fill="none" xmlns="http://www.w3.org/2000/svg">
<path d="M12.5 0.5C5.60729 0.5 0 6.10729 0 13C0 19.8927 5.60729 25.5 12.5 25.5C19.3927 25.5 25 19.8927 25 13C25 6.10729 19.3927 0.5 12.5 0.5ZM12.5 23.4167C6.75625 23.4167 2.08333 18.7437 2.08333 13C2.08333 7.25625 6.75625 2.58333 12.5 2.58333C18.2437 2.58333 22.9167 7.25625 22.9167 13C22.9167 18.7437 18.2437 23.4167 12.5 23.4167ZM14.0625 7.27083C14.0624 7.68537 13.8976 8.08288 13.6043 8.3759C13.3111 8.66893 12.9135 8.83347 12.499 8.83333C12.0844 8.83319 11.6869 8.66839 11.3939 8.37517C11.1009 8.08195 10.9363 7.68433 10.9365 7.26979C10.9366 6.85525 11.1014 6.45775 11.3946 6.16472C11.6878 5.8717 12.0855 5.70715 12.5 5.70729C12.9145 5.70743 13.312 5.87224 13.6051 6.16546C13.8981 6.45868 14.0626 6.85629 14.0625 7.27083ZM14.0625 18.7292C14.0624 19.1437 13.8976 19.5412 13.6043 19.8342C13.3111 20.1273 12.9135 20.2918 12.499 20.2917C12.0844 20.2915 11.6869 20.1267 11.3939 19.8335C11.1009 19.5403 10.9363 19.1427 10.9365 18.7281C10.9365 18.5229 10.977 18.3196 11.0556 18.13C11.1342 17.9404 11.2494 17.7681 11.3946 17.6231C11.5398 17.478 11.7122 17.3629 11.9018 17.2844C12.0915 17.2059 12.2947 17.1656 12.5 17.1656C12.7053 17.1657 12.9085 17.2062 13.0981 17.2848C13.2877 17.3634 13.46 17.4786 13.6051 17.6238C13.7502 17.769 13.8652 17.9413 13.9437 18.131C14.0222 18.3206 14.0626 18.5239 14.0625 18.7292ZM14.0625 13C14.0624 13.2053 14.0219 13.4085 13.9433 13.5981C13.8647 13.7877 13.7495 13.96 13.6043 14.1051C13.4591 14.2502 13.2868 14.3652 13.0971 14.4437C12.9075 14.5222 12.7042 14.5626 12.499 14.5625C12.2937 14.5624 12.0905 14.5219 11.9009 14.4433C11.7112 14.3647 11.539 14.2495 11.3939 14.1043C11.1009 13.8111 10.9363 13.4135 10.9365 12.999C10.9366 12.5844 11.1014 12.1869 11.3946 11.8939C11.6878 11.6009 12.0855 11.4363 12.5 11.4365C12.9145 11.4366 13.312 11.6014 13.6051 11.8946C13.8981 12.1878 14.0626 12.5855 14.0625 13Z" fill="#222222"/>
</svg>
