<svg width="20" height="21" viewBox="0 0 20 21" fill="none" xmlns="http://www.w3.org/2000/svg">
<g clip-path="url(#clip0_475_850)">
<path d="M14.1667 16.3334C14.1667 18.6334 12.3 20.5 10 20.5H4.16667C1.86667 20.5 0 18.6334 0 16.3334V10.5C0 8.20005 1.86667 6.33338 4.16667 6.33338H5C5.45833 6.33338 5.83333 6.70838 5.83333 7.16672C5.83333 7.62505 5.45833 8.00005 5 8.00005H4.16667C2.79167 8.00005 1.66667 9.12505 1.66667 10.5V16.3334C1.66667 17.7084 2.79167 18.8334 4.16667 18.8334H10C11.375 18.8334 12.5 17.7084 12.5 16.3334C12.5 15.875 12.875 15.5 13.3333 15.5C13.7917 15.5 14.1667 15.875 14.1667 16.3334ZM19.275 5.40838L14.7667 0.750048C14.45 0.416715 13.9167 0.408382 13.5917 0.733382C13.2667 1.05838 13.25 1.58338 13.575 1.90838L17.8583 6.32505H10.8333C8.53333 6.32505 6.66667 8.19172 6.66667 10.4917V14.6584C6.66667 15.1167 7.04167 15.4917 7.5 15.4917C7.95833 15.4917 8.33333 15.1167 8.33333 14.6584V10.4917C8.33333 9.11672 9.45833 7.99172 10.8333 7.99172H17.85L13.5667 12.4084C13.4527 12.5257 13.376 12.674 13.346 12.8348C13.3161 12.9956 13.3343 13.1616 13.3984 13.312C13.4625 13.4625 13.5696 13.5907 13.7063 13.6804C13.843 13.7702 14.0031 13.8176 14.1667 13.8167C14.375 13.8167 14.6 13.7334 14.7667 13.5667L19.2667 8.92505C19.734 8.45807 19.9973 7.82494 19.9988 7.16427C20.0004 6.5036 19.7401 5.86923 19.275 5.40005V5.40838Z" fill="#222222"/>
</g>
<defs>
<clipPath id="clip0_475_850">
<rect width="20" height="20" fill="white" transform="translate(0 0.5)"/>
</clipPath>
</defs>
</svg>
