<svg width="393" height="852" viewBox="0 0 393 852" fill="none" xmlns="http://www.w3.org/2000/svg">
<g clip-path="url(#clip0_1_8)">
<rect width="393" height="852" rx="40" fill="#010101"/>
<g clip-path="url(#clip1_1_8)">
<path d="M631.554 -763.071L196.5 -328.017L355.731 266.269L950.017 425.5L1385.07 -9.55421L1225.84 -603.84L631.554 -763.071Z" stroke="white" stroke-linejoin="round"/>
<path d="M790.786 -168.786L355.731 266.269" stroke="white" stroke-linejoin="round"/>
<path d="M196.5 -328.017L-238.554 -763.071L-832.84 -603.84L-992.071 -9.55421L-557.017 425.5L37.2687 266.269L196.5 -328.017Z" stroke="white" stroke-linejoin="round"/>
<path d="M-397.786 -168.786L37.2687 266.269" stroke="white" stroke-linejoin="round"/>
<path d="M-238.554 1614.07L196.5 1179.02L37.2687 584.731L-557.017 425.5L-992.071 860.554L-832.84 1454.84L-238.554 1614.07Z" stroke="white" stroke-linejoin="round"/>
<path d="M-397.786 1019.79L37.2687 584.731" stroke="white" stroke-linejoin="round"/>
<path d="M196.5 1179.02L631.554 1614.07L1225.84 1454.84L1385.07 860.554L950.017 425.5L355.731 584.731L196.5 1179.02Z" stroke="white" stroke-linejoin="round"/>
<path d="M355.731 584.731L790.786 1019.79" stroke="white" stroke-linejoin="round"/>
</g>





</g>
<defs>
<clipPath id="clip0_1_8">
<rect width="393" height="852" rx="40" fill="white"/>
</clipPath>
<clipPath id="clip1_1_8">
<rect width="2379" height="2379" fill="white" transform="translate(-993 -764)"/>
</clipPath>
<clipPath id="clip2_1_8">

</clipPath>
</defs>
</svg>
