<svg width="102" height="101" viewBox="0 0 102 101" fill="none" xmlns="http://www.w3.org/2000/svg">
<path d="M101.811 30.6823L77.4153 24.1999L70.8804 0L95.2691 6.48237L101.811 30.6823Z" fill="#F5EB10"/>
<path d="M68.7631 0.55957L75.298 24.7595L57.4369 42.4697L50.902 18.2771L68.7631 0.55957Z" fill="#F5EB10"/>
<path d="M101.247 32.7825L83.386 50.5L58.9973 44.0104L76.8511 26.3001L101.247 32.7825Z" fill="#F5EB10"/>
<path d="M30.9236 0L24.3887 24.1999L0 30.675L6.53491 6.48237L30.9236 0Z" fill="#F5EB10"/>
<path d="M42.8139 44.0104L18.4252 50.5L0.571411 32.7825L24.9601 26.3001L42.8139 44.0104Z" fill="#F5EB10"/>
<path d="M44.3671 42.4697L26.5133 24.7595L33.0482 0.566849L50.902 18.2771L44.3671 42.4697Z" fill="#F5EB10"/>
<path d="M42.8139 56.9824L24.9601 74.6926L0.571411 68.2175L18.4252 50.5L42.8139 56.9824Z" fill="#F5EB10"/>
<path d="M50.9019 82.7156L33.0481 100.433L26.5132 76.2333L44.367 58.523L50.9019 82.7156Z" fill="#F5EB10"/>
<path d="M30.9236 100.993V101L6.53491 94.5176L0 70.325V70.3177L24.3887 76.8001L30.9236 100.993Z" fill="#F5EB10"/>
<path d="M101.247 68.2175L76.8438 74.6926L58.99 56.9824L83.386 50.5L101.247 68.2175Z" fill="#F5EB10"/>
<path d="M75.2907 76.2333L68.7631 100.433L50.902 82.7156L57.4369 58.523L75.2907 76.2333Z" fill="#F5EB10"/>
<path d="M101.811 70.3177L95.2691 94.5176L70.8804 101V100.993L77.4153 76.8001L101.811 70.3177Z" fill="#F5EB10"/>
</svg>
