<svg width="15" height="16" viewBox="0 0 15 16" fill="none" xmlns="http://www.w3.org/2000/svg">
<g clip-path="url(#clip0_472_788)">
<path d="M14.8975 5.99628C14.7697 5.58934 14.5142 5.23435 14.169 4.9838C13.8238 4.73325 13.4071 4.60045 12.9806 4.60503H10.25L9.42062 2.02003C9.2902 1.61313 9.03392 1.25817 8.68873 1.00632C8.34354 0.75448 7.92729 0.618774 7.5 0.618774C7.07271 0.618774 6.65645 0.75448 6.31127 1.00632C5.96608 1.25817 5.7098 1.61313 5.57937 2.02003L4.75 4.60503H2.01937C1.59421 4.60564 1.18012 4.74059 0.836236 4.9906C0.492353 5.24061 0.236274 5.5929 0.104574 5.99715C-0.0271252 6.4014 -0.0277081 6.83693 0.102909 7.24153C0.233526 7.64613 0.488661 7.9991 0.831873 8.25003L3.05437 9.87503L2.20937 12.4919C2.07282 12.8978 2.07109 13.3369 2.20444 13.7438C2.3378 14.1508 2.59909 14.5037 2.94937 14.75C3.29366 15.0043 3.71087 15.1405 4.13884 15.1383C4.56682 15.1362 4.98265 14.9958 5.32437 14.7382L7.5 13.1369L9.67625 14.7363C10.0199 14.9891 10.4349 15.1264 10.8615 15.1284C11.2881 15.1305 11.7044 14.9973 12.0505 14.7479C12.3966 14.4984 12.6547 14.1457 12.7877 13.7403C12.9207 13.335 12.9217 12.8979 12.7906 12.4919L11.9456 9.87503L14.1706 8.25003C14.5178 8.00225 14.7759 7.64928 14.9068 7.24337C15.0377 6.83747 15.0345 6.40019 14.8975 5.99628ZM13.4331 7.24066L10.8431 9.13378C10.7367 9.21139 10.6576 9.32061 10.617 9.44587C10.5763 9.57112 10.5763 9.70601 10.6169 9.83128L11.6012 12.875C11.6511 13.0294 11.6506 13.1956 11.6 13.3497C11.5494 13.5039 11.4513 13.638 11.3196 13.7328C11.188 13.8276 11.0297 13.8782 10.8675 13.8774C10.7053 13.8766 10.5475 13.8243 10.4169 13.7282L7.87 11.8532C7.76273 11.7744 7.6331 11.7319 7.5 11.7319C7.3669 11.7319 7.23727 11.7744 7.13 11.8532L4.58312 13.7282C4.45255 13.8256 4.29433 13.8789 4.13141 13.8804C3.96849 13.8819 3.80934 13.8314 3.67702 13.7364C3.5447 13.6413 3.44609 13.5066 3.3955 13.3517C3.3449 13.1968 3.34495 13.0299 3.39562 12.875L4.38312 9.83128C4.4237 9.70601 4.42367 9.57112 4.38304 9.44587C4.34241 9.32061 4.26326 9.21139 4.15687 9.13378L1.56687 7.24066C1.43644 7.14515 1.33952 7.01087 1.28996 6.857C1.2404 6.70312 1.24074 6.53752 1.29093 6.38384C1.34111 6.23017 1.43858 6.09629 1.5694 6.00132C1.70022 5.90635 1.85771 5.85515 2.01937 5.85503H5.20687C5.3392 5.85503 5.4681 5.81303 5.57503 5.73508C5.68195 5.65713 5.76138 5.54726 5.80187 5.42128L6.77062 2.40191C6.82035 2.2474 6.91782 2.11265 7.049 2.01706C7.18018 1.92147 7.33831 1.86997 7.50062 1.86997C7.66294 1.86997 7.82106 1.92147 7.95225 2.01706C8.08343 2.11265 8.1809 2.2474 8.23062 2.40191L9.19937 5.42128C9.23986 5.54726 9.31929 5.65713 9.42622 5.73508C9.53314 5.81303 9.66205 5.85503 9.79437 5.85503H12.9819C13.1435 5.85515 13.301 5.90635 13.4318 6.00132C13.5627 6.09629 13.6601 6.23017 13.7103 6.38384C13.7605 6.53752 13.7608 6.70312 13.7113 6.857C13.6617 7.01087 13.5648 7.14515 13.4344 7.24066H13.4331Z" fill="#222222"/>
</g>
<defs>
<clipPath id="clip0_472_788">
<rect width="15" height="15" fill="white" transform="translate(0 0.5)"/>
</clipPath>
</defs>
</svg>
