<svg width="24" height="25" viewBox="0 0 24 25" fill="none" xmlns="http://www.w3.org/2000/svg">
<path d="M15.8615 12.1948L13.4729 14.5833L15.8615 16.9719C16.0568 17.1672 16.1665 17.4321 16.1665 17.7083C16.1665 17.9846 16.0568 18.2495 15.8615 18.4448C15.6662 18.6401 15.4012 18.7498 15.125 18.7498C14.8488 18.7498 14.5839 18.6401 14.3886 18.4448L12 16.0562L9.61147 18.4448C9.51496 18.5419 9.40021 18.6189 9.27382 18.6715C9.14743 18.724 9.0119 18.7511 8.87502 18.7511C8.73813 18.7511 8.6026 18.724 8.47621 18.6715C8.34982 18.6189 8.23507 18.5419 8.13856 18.4448C8.04174 18.3481 7.96493 18.2333 7.91252 18.107C7.86012 17.9806 7.83314 17.8451 7.83314 17.7083C7.83314 17.5715 7.86012 17.4361 7.91252 17.3097C7.96493 17.1833 8.04174 17.0685 8.13856 16.9719L10.5271 14.5833L8.13856 12.1948C8.04184 12.0981 7.96513 11.9833 7.91279 11.8569C7.86045 11.7305 7.83351 11.5951 7.83351 11.4583C7.83351 11.3216 7.86045 11.1861 7.91279 11.0598C7.96513 10.9334 8.04184 10.8186 8.13856 10.7219C8.23527 10.6252 8.35009 10.5484 8.47645 10.4961C8.60281 10.4438 8.73824 10.4168 8.87502 10.4168C9.01179 10.4168 9.14722 10.4438 9.27358 10.4961C9.39995 10.5484 9.51476 10.6252 9.61147 10.7219L12 13.1104L14.3886 10.7219C14.4853 10.6252 14.6001 10.5484 14.7264 10.4961C14.8528 10.4438 14.9882 10.4168 15.125 10.4168C15.2618 10.4168 15.3972 10.4438 15.5236 10.4961C15.6499 10.5484 15.7648 10.6252 15.8615 10.7219C15.9582 10.8186 16.0349 10.9334 16.0872 11.0598C16.1396 11.1861 16.1665 11.3216 16.1665 11.4583C16.1665 11.5951 16.1396 11.7305 16.0872 11.8569C16.0349 11.9833 15.9582 12.0981 15.8615 12.1948ZM23.4583 5.20833C23.4583 5.4846 23.3486 5.74955 23.1533 5.9449C22.9579 6.14025 22.6929 6.25 22.4167 6.25H21.4948L20.1656 20.2833C20.0479 21.5756 19.45 22.7768 18.4901 23.65C17.5302 24.5232 16.2779 25.0048 14.9802 25H9.0146C7.71829 25.0047 6.46719 24.524 5.50765 23.6523C4.54812 22.7807 3.9497 21.5814 3.83022 20.2906L2.48022 6.25H1.58439C1.30812 6.25 1.04317 6.14025 0.847822 5.9449C0.652471 5.74955 0.542725 5.4846 0.542725 5.20833C0.542725 4.93207 0.652471 4.66711 0.847822 4.47176C1.04317 4.27641 1.30812 4.16667 1.58439 4.16667H5.85627C6.09818 2.99132 6.73774 1.93524 7.66725 1.17631C8.59676 0.417375 9.75941 0.00194944 10.9594 0L13.0427 0C14.2428 0.00175455 15.4055 0.417109 16.3351 1.17608C17.2646 1.93504 17.9041 2.99123 18.1458 4.16667H22.4177C22.694 4.16667 22.9589 4.27641 23.1543 4.47176C23.3496 4.66711 23.4583 4.93207 23.4583 5.20833ZM8.01252 4.16667H15.9875C15.7716 3.5578 15.3725 3.03069 14.8451 2.65767C14.3177 2.28466 13.6877 2.08403 13.0417 2.08333H10.9583C10.3123 2.08403 9.68237 2.28466 9.15493 2.65767C8.62749 3.03069 8.22843 3.5578 8.01252 4.16667ZM19.4021 6.25H4.57293L5.90418 20.0906C5.97553 20.8652 6.33445 21.585 6.91018 22.1081C7.48592 22.6312 8.23672 22.9197 9.0146 22.9167H14.9802C15.759 22.9196 16.5106 22.6304 17.0867 22.1063C17.6627 21.5821 18.0213 20.861 18.0917 20.0854L19.4021 6.25Z" fill="white"/>
</svg>
