<svg width="15" height="16" viewBox="0 0 15 16" fill="none" xmlns="http://www.w3.org/2000/svg">
<g clip-path="url(#clip0_472_731)">
<path d="M9.81698 7.81687L8.38386 9.25L9.81698 10.6831C9.93417 10.8003 10 10.9593 10 11.125C10 11.2907 9.93417 11.4497 9.81698 11.5669C9.69979 11.6841 9.54084 11.7499 9.37511 11.7499C9.20937 11.7499 9.05042 11.6841 8.93323 11.5669L7.50011 10.1337L6.06698 11.5669C6.00907 11.6251 5.94022 11.6713 5.86439 11.7029C5.78856 11.7344 5.70724 11.7506 5.62511 11.7506C5.54298 11.7506 5.46166 11.7344 5.38582 11.7029C5.30999 11.6713 5.24114 11.6251 5.18323 11.5669C5.12514 11.5089 5.07905 11.44 5.04761 11.3642C5.01617 11.2884 4.99998 11.2071 4.99998 11.125C4.99998 11.0429 5.01617 10.9616 5.04761 10.8858C5.07905 10.81 5.12514 10.7411 5.18323 10.6831L6.61636 9.25L5.18323 7.81687C5.1252 7.75885 5.07917 7.68996 5.04777 7.61414C5.01637 7.53832 5.0002 7.45706 5.0002 7.375C5.0002 7.29294 5.01637 7.21168 5.04777 7.13586C5.07917 7.06004 5.1252 6.99115 5.18323 6.93312C5.24126 6.8751 5.31015 6.82907 5.38597 6.79766C5.46178 6.76626 5.54304 6.75009 5.62511 6.75009C5.70717 6.75009 5.78843 6.76626 5.86425 6.79766C5.94006 6.82907 6.00895 6.8751 6.06698 6.93312L7.50011 8.36625L8.93323 6.93312C8.99126 6.8751 9.06015 6.82907 9.13597 6.79766C9.21178 6.76626 9.29304 6.75009 9.37511 6.75009C9.45717 6.75009 9.53843 6.76626 9.61425 6.79766C9.69006 6.82907 9.75895 6.8751 9.81698 6.93312C9.87501 6.99115 9.92104 7.06004 9.95244 7.13586C9.98385 7.21168 10 7.29294 10 7.375C10 7.45706 9.98385 7.53832 9.95244 7.61414C9.92104 7.68996 9.87501 7.75885 9.81698 7.81687ZM14.3751 3.625C14.3751 3.79076 14.3093 3.94973 14.192 4.06694C14.0748 4.18415 13.9159 4.25 13.7501 4.25H13.197L12.3995 12.67C12.3288 13.4454 11.9701 14.1661 11.3942 14.69C10.8182 15.2139 10.0668 15.5029 9.28823 15.5H5.70886C4.93107 15.5028 4.18041 15.2144 3.60469 14.6914C3.02897 14.1684 2.66991 13.4489 2.59823 12.6744L1.78823 4.25H1.25073C1.08497 4.25 0.926001 4.18415 0.808791 4.06694C0.69158 3.94973 0.625732 3.79076 0.625732 3.625C0.625732 3.45924 0.69158 3.30027 0.808791 3.18306C0.926001 3.06585 1.08497 3 1.25073 3H3.81386C3.959 2.29479 4.34274 1.66115 4.90045 1.20579C5.45815 0.750425 6.15574 0.50117 6.87573 0.5L8.12573 0.5C8.84575 0.501053 9.5434 0.750265 10.1011 1.20565C10.6589 1.66103 11.0426 2.29474 11.1876 3H13.7507C13.9165 3 14.0755 3.06585 14.1927 3.18306C14.3099 3.30027 14.3751 3.45924 14.3751 3.625ZM5.10761 3H9.89261C9.76306 2.63468 9.52362 2.31841 9.20716 2.0946C8.89069 1.8708 8.51271 1.75042 8.12511 1.75H6.87511C6.4875 1.75042 6.10952 1.8708 5.79306 2.0946C5.47659 2.31841 5.23715 2.63468 5.10761 3ZM11.9414 4.25H3.04386L3.84261 12.5544C3.88542 13.0191 4.10077 13.451 4.44621 13.7649C4.79165 14.0787 5.24213 14.2518 5.70886 14.25H9.28823C9.75552 14.2518 10.2065 14.0783 10.5521 13.7638C10.8977 13.4493 11.1129 13.0166 11.1551 12.5512L11.9414 4.25Z" fill="#222222"/>
</g>
<defs>
<clipPath id="clip0_472_731">
<rect width="15" height="15" fill="white" transform="translate(0 0.5)"/>
</clipPath>
</defs>
</svg>
