<svg width="40" height="40" viewBox="0 0 40 40" fill="none" xmlns="http://www.w3.org/2000/svg">
<rect width="40" height="40" rx="20" fill="#010101"/>
<g clip-path="url(#clip0_44_1339)">
<path d="M29.1251 18C28.9689 17.8438 28.7569 17.756 28.536 17.756C28.315 17.756 28.1031 17.8438 27.9468 18L18.8701 27.1158C18.4832 27.5028 18.0239 27.8098 17.5184 28.0192C17.0128 28.2287 16.471 28.3365 15.9238 28.3365C14.8186 28.3366 13.7587 27.8977 12.9772 27.1163C12.1957 26.3349 11.7566 25.275 11.7566 24.1699C11.7565 23.0648 12.1954 22.0049 12.9768 21.2233L21.7676 12.3967C22.2377 11.9341 22.8715 11.676 23.531 11.6786C24.1906 11.6812 24.8223 11.9443 25.2887 12.4106C25.7551 12.8769 26.0184 13.5086 26.0211 14.1681C26.0239 14.8276 25.766 15.4615 25.3035 15.9317L16.5126 24.7583C16.3541 24.9102 16.143 24.995 15.9235 24.995C15.7039 24.995 15.4928 24.9102 15.3343 24.7583C15.1781 24.6021 15.0903 24.3901 15.0903 24.1692C15.0903 23.9482 15.1781 23.7363 15.3343 23.58L23.161 15.7175C23.3128 15.5603 23.3968 15.3498 23.3949 15.1313C23.393 14.9128 23.3053 14.7038 23.1508 14.5493C22.9963 14.3948 22.7873 14.3072 22.5688 14.3053C22.3503 14.3034 22.1398 14.3874 21.9826 14.5392L14.156 22.4017C13.9238 22.6338 13.7396 22.9094 13.6139 23.2128C13.4883 23.5161 13.4236 23.8413 13.4236 24.1696C13.4236 24.4979 13.4883 24.8231 13.6139 25.1264C13.7396 25.4297 13.9238 25.7054 14.156 25.9375C14.6323 26.3921 15.2655 26.6457 15.9239 26.6457C16.5823 26.6457 17.2155 26.3921 17.6918 25.9375L26.4818 17.11C27.2468 16.3253 27.6718 15.2707 27.6648 14.1748C27.6578 13.0789 27.2193 12.0299 26.4443 11.255C25.6693 10.4802 24.6202 10.0418 23.5243 10.0349C22.4284 10.0281 21.3739 10.4532 20.5893 11.2183L11.7985 20.045C10.7045 21.139 10.0898 22.6228 10.0898 24.17C10.0898 25.7172 10.7045 27.201 11.7985 28.295C12.8925 29.389 14.3763 30.0036 15.9235 30.0036C17.4706 30.0036 18.9545 29.389 20.0485 28.295L29.1251 19.1817C29.203 19.1042 29.2648 19.0122 29.3069 18.9108C29.3491 18.8094 29.3708 18.7007 29.3708 18.5908C29.3708 18.481 29.3491 18.3723 29.3069 18.2709C29.2648 18.1695 29.203 18.0775 29.1251 18Z" fill="#ffffff"/>
</g>
<defs>
<clipPath id="clip0_44_1339">
<rect width="20" height="20" fill="white" transform="translate(10 10)"/>
</clipPath>
</defs>
</svg>
