<svg width="47" height="47" viewBox="0 0 47 47" fill="none" xmlns="http://www.w3.org/2000/svg">
<path d="M46.9996 14.1641L35.7375 11.1716L32.7207 0L43.9794 2.9925L46.9996 14.1641Z" fill="#010101"/>
<path d="M31.7434 0.258316L34.7601 11.4299L26.5148 19.6056L23.498 8.43737L31.7434 0.258316Z" fill="#010101"/>
<path d="M46.7394 15.1336L38.4941 23.3127L27.2354 20.3168L35.4773 12.1411L46.7394 15.1336Z" fill="#010101"/>
<path d="M14.2755 0L11.2587 11.1716L0 14.1607L3.01675 2.9925L14.2755 0Z" fill="#010101"/>
<path d="M19.7646 20.3168L8.50588 23.3127L0.263916 15.1336L11.5226 12.1411L19.7646 20.3168Z" fill="#010101"/>
<path d="M20.4815 19.6056L12.2395 11.4299L15.2563 0.261681L23.4982 8.43738L20.4815 19.6056Z" fill="#010101"/>
<path d="M19.7646 26.3052L11.5226 34.4809L0.263916 31.4917L8.50588 23.3127L19.7646 26.3052Z" fill="#010101"/>
<path d="M23.4982 38.1846L15.2563 46.3636L12.2395 35.1921L20.4815 27.0164L23.4982 38.1846Z" fill="#010101"/>
<path d="M14.2755 46.622V46.6253L3.01675 43.6328L0 32.4646V32.4613L11.2587 35.4538L14.2755 46.622Z" fill="#010101"/>
<path d="M46.7394 31.4917L35.4739 34.4809L27.2319 26.3052L38.494 23.3127L46.7394 31.4917Z" fill="#010101"/>
<path d="M34.7568 35.1921L31.7434 46.3636L23.498 38.1846L26.5148 27.0164L34.7568 35.1921Z" fill="#010101"/>
<path d="M46.9996 32.4613L43.9794 43.6328L32.7207 46.6253V46.622L35.7375 35.4538L46.9996 32.4613Z" fill="#010101"/>
</svg>
