<svg width="21" height="21" viewBox="0 0 21 21" fill="none" xmlns="http://www.w3.org/2000/svg">
<g clip-path="url(#clip0_33_157)">
<path d="M20.75 13.4586V17.6253C20.75 18.2883 20.4866 18.9242 20.0178 19.3931C19.5489 19.8619 18.913 20.1253 18.25 20.1253H14.0833C12.9142 20.1241 11.766 19.8155 10.7539 19.2304C9.74172 18.6454 8.90121 17.8044 8.31667 16.792C8.94489 16.7875 9.57098 16.7182 10.185 16.5853C10.6526 17.17 11.2458 17.642 11.9207 17.9663C12.5955 18.2906 13.3346 18.4588 14.0833 18.4586H18.25C18.471 18.4586 18.683 18.3708 18.8393 18.2146C18.9955 18.0583 19.0833 17.8463 19.0833 17.6253V13.4586C19.0831 12.7097 18.9143 11.9703 18.5895 11.2955C18.2646 10.6207 17.792 10.0276 17.2067 9.56031C17.3407 8.9464 17.4111 8.32031 17.4167 7.69197C18.4291 8.27652 19.2701 9.11702 19.8551 10.1292C20.4402 11.1413 20.7488 12.2896 20.75 13.4586ZM15.7308 8.16781C15.8088 7.09417 15.6547 6.01634 15.279 5.00755C14.9034 3.99876 14.315 3.08266 13.5538 2.32149C12.7926 1.56032 11.8765 0.971916 10.8678 0.596269C9.85896 0.220623 8.78113 0.0665337 7.7075 0.144472C5.80493 0.361749 4.04744 1.26712 2.76598 2.69009C1.48452 4.11306 0.767523 5.95545 0.75 7.87031L0.75 12.0703C0.75 14.1803 2.00583 15.1253 3.25 15.1253H8C9.91567 15.1088 11.7592 14.3923 13.1832 13.1108C14.6071 11.8292 15.5133 10.0712 15.7308 8.16781ZM12.375 3.50114C12.9666 4.09406 13.424 4.80714 13.7161 5.59213C14.0082 6.37712 14.1284 7.2157 14.0683 8.05114C13.8905 9.53753 13.1754 10.9077 12.0578 11.9036C10.9401 12.8995 9.49699 13.4526 8 13.4586H3.25C2.47667 13.4586 2.41667 12.3961 2.41667 12.0703V7.87031C2.42361 6.37395 2.97721 4.93173 3.97326 3.81504C4.96932 2.69835 6.33916 1.98419 7.825 1.80697C7.96333 1.79697 8.10167 1.79197 8.24 1.79197C9.00772 1.79126 9.76807 1.94184 10.4776 2.2351C11.1871 2.52837 11.8318 2.95858 12.375 3.50114Z" fill="#F5EB10"/>
</g>
<defs>
<clipPath id="clip0_33_157">
<rect width="20" height="20" fill="white" transform="translate(0.75 0.125305)"/>
</clipPath>
</defs>
</svg>
