<svg width="75" height="75" viewBox="0 0 75 75" fill="none" xmlns="http://www.w3.org/2000/svg">
<circle cx="37.5" cy="37.5" r="37.5" fill="#F2F3F5"/>
<g clip-path="url(#clip0_33_942)">
<path d="M33.625 29.2502C34.6625 29.2502 35.5 30.0877 35.5 31.1252C35.5 32.1627 34.6625 33.0002 33.625 33.0002C32.5875 33.0002 31.75 32.1627 31.75 31.1252C31.75 30.0877 32.5875 29.2502 33.625 29.2502ZM42.775 33.2252L42.3375 31.4502C42.2 30.9002 41.7 30.5002 41.125 30.5002C40.55 30.5002 40.05 30.8877 39.9125 31.4502L39.475 33.2127L37.725 33.6127C37.1625 33.7377 36.7625 34.2377 36.7625 34.8127C36.7625 35.3877 37.1375 35.8877 37.6875 36.0377L39.475 36.5252L39.925 38.3127C40.0625 38.8627 40.5625 39.2627 41.1375 39.2627C41.7125 39.2627 42.2125 38.8752 42.35 38.3127L42.7875 36.5377L44.5625 36.1002C45.1125 35.9627 45.5125 35.4627 45.5125 34.8877C45.5125 34.3127 45.125 33.8127 44.5625 33.6752L42.7875 33.2377L42.775 33.2252ZM43.7625 29.1002L45.9625 30.0252L46.8375 32.2127C46.9296 32.4459 47.0898 32.646 47.2971 32.7869C47.5044 32.9279 47.7493 33.0033 48 33.0033C48.2507 33.0033 48.4956 32.9279 48.7029 32.7869C48.9102 32.646 49.0704 32.4459 49.1625 32.2127L50.0375 30.0377L52.2125 29.1627C52.4457 29.0706 52.6457 28.9105 52.7867 28.7032C52.9277 28.4959 53.0031 28.2509 53.0031 28.0002C53.0031 27.7495 52.9277 27.5046 52.7867 27.2973C52.6457 27.09 52.4457 26.9299 52.2125 26.8377L50.0375 25.9627L49.1625 23.7877C49.0704 23.5546 48.9102 23.3545 48.7029 23.2136C48.4956 23.0726 48.2507 22.9972 48 22.9972C47.7493 22.9972 47.5044 23.0726 47.2971 23.2136C47.0898 23.3545 46.9296 23.5546 46.8375 23.7877L45.975 25.9502L43.8125 26.7752C43.3375 26.9502 43.0125 27.4127 43 27.9252C43 28.4377 43.2875 28.9002 43.7625 29.1002ZM53 34.2502V46.7502C53 50.2002 50.2 53.0002 46.75 53.0002H29.25C25.8 53.0002 23 50.2002 23 46.7502V29.2502C23 25.8002 25.8 23.0002 29.25 23.0002H41.75C42.4375 23.0002 43 23.5627 43 24.2502C43 24.9377 42.4375 25.5002 41.75 25.5002H29.25C27.1875 25.5002 25.5 27.1877 25.5 29.2502V37.4877L26.2 36.7877C27.875 35.1127 30.6125 35.1127 32.3 36.7877L39.275 43.7627C39.6027 44.0872 40.0451 44.2692 40.5063 44.2692C40.9674 44.2692 41.4098 44.0872 41.7375 43.7627L42.4625 43.0377C44.1375 41.3627 46.875 41.3627 48.5625 43.0377L50.5125 44.9877V34.2502C50.5125 33.5627 51.075 33.0002 51.7625 33.0002C52.45 33.0002 53.0125 33.5627 53.0125 34.2502H53ZM50.2 48.2127L46.775 44.7877C46.4335 44.4511 45.9733 44.2624 45.4938 44.2624C45.0142 44.2624 44.554 44.4511 44.2125 44.7877L43.4875 45.5127C42.6903 46.3054 41.6117 46.7503 40.4875 46.7503C39.3633 46.7503 38.2847 46.3054 37.4875 45.5127L30.5125 38.5377C30.171 38.2011 29.7108 38.0124 29.2313 38.0124C28.7517 38.0124 28.2915 38.2011 27.95 38.5377L25.475 41.0127V46.7502C25.475 48.8127 27.1625 50.5002 29.225 50.5002H46.725C48.275 50.5002 49.6 49.5627 50.175 48.2127H50.2Z" fill="#222222"/>
</g>
<defs>
<clipPath id="clip0_33_942">
<rect width="30" height="30" fill="white" transform="translate(23 23)"/>
</clipPath>
</defs>
</svg>
