<svg width="173" height="93" viewBox="0 0 173 93" fill="none" xmlns="http://www.w3.org/2000/svg">
<g clip-path="url(#clip0_33_655)">
<path d="M122.342 83.5338H122.27L118.108 76.0653H113.898V92.766H117.87V88.6868C117.87 84.7276 117.823 82.772 117.823 82.748H117.894C117.894 82.748 118.697 84.2777 119.529 85.7534L121.135 88.6388H123.358L124.964 85.7054C125.766 84.2777 126.569 82.772 126.599 82.748H126.646C126.646 82.748 126.599 84.7276 126.599 88.6868V92.766H130.571V76.0653H126.527L122.342 83.5338Z" fill="#F5EB10"/>
<path d="M41.7636 83.5338H41.6923L37.5302 76.0653H33.3206V92.766H37.2924V88.6868C37.2924 84.7276 37.2448 82.772 37.2448 82.748H37.3162C37.3162 82.748 38.1188 84.2777 38.9513 85.7534L40.5566 88.6388H42.7804L44.3858 85.7054C45.1884 84.2777 45.9911 82.772 46.0209 82.748H46.0684C46.0684 82.748 46.0209 84.7276 46.0209 88.6868V92.766H49.9927V76.0653H45.9495L41.7636 83.5338Z" fill="#F5EB10"/>
<path d="M164.277 76.0653H159.449V92.766H164.295C169.189 92.766 172.994 89.5447 172.994 84.4876C172.994 79.4306 169.213 76.0653 164.272 76.0653H164.277ZM164.063 89.0468H163.427V79.7906H164.063C166.525 79.7906 169.004 81.2243 169.004 84.4937C169.004 87.763 166.519 89.0528 164.063 89.0528V89.0468Z" fill="#F5EB10"/>
<path d="M6.32042 76.0653L0 92.766H3.98371L4.91721 90.1086H11.6301L12.5635 92.766H16.5473L10.2268 76.0653H6.30853H6.32042ZM6.15394 86.6772L8.2766 80.6544L10.3993 86.6772H6.15394Z" fill="#F5EB10"/>
<path d="M22.6654 76.0653H18.979V92.766H22.6654V76.0653Z" fill="#F5EB10"/>
<path d="M57.0385 76.0653H53.3521V92.766H57.0385V76.0653Z" fill="#F5EB10"/>
<path d="M68.8587 79.3586C70.47 79.3586 71.9386 80.0425 72.8899 81.4522L75.5477 79.5926C73.8472 76.6772 71.1181 75.8313 68.7635 75.8313C64.102 75.8313 60.1599 79.1967 60.1599 84.4157C60.1599 89.6347 64.0782 93 68.7398 93C71.0943 93 73.8472 92.1542 75.5477 89.2387L72.8899 87.3791C71.9327 88.7888 70.5592 89.4727 68.8825 89.4727C66.2009 89.4727 63.9652 87.589 63.9652 84.4157C63.9652 81.2423 66.1593 79.3586 68.8587 79.3586Z" fill="#F5EB10"/>
<path d="M90.4064 81.8542C90.4064 78.3028 87.9805 76.0713 84.4606 76.0713H78.4434V92.772H82.1298V87.3851H84.1335L87.3978 92.772H91.2923L87.5167 86.7492C89.3124 85.8794 90.4064 84.2117 90.4064 81.8542ZM84.086 84.2057H82.1298V79.4786H84.086C85.5784 79.4786 86.6724 80.0665 86.6724 81.8542C86.6724 83.6418 85.5784 84.2057 84.086 84.2057Z" fill="#F5EB10"/>
<path d="M101.483 75.8313C96.7981 75.8313 92.9036 79.3166 92.9036 84.4157C92.9036 89.5147 96.7981 93 101.483 93C106.169 93 110.063 89.5207 110.063 84.4157C110.063 79.3107 106.145 75.8313 101.483 75.8313ZM101.483 89.4727C98.8732 89.4727 96.703 87.4991 96.703 84.4157C96.703 81.3323 98.8732 79.3586 101.483 79.3586C104.094 79.3586 106.264 81.3383 106.264 84.4157C106.264 87.4931 104.094 89.4727 101.483 89.4727Z" fill="#F5EB10"/>
<path d="M138.33 76.0653H134.644V92.766H138.33V76.0653Z" fill="#F5EB10"/>
<path d="M152.41 86.6772H152.291L145.37 76.0653H141.683V92.766H145.37V82.1601H145.483L152.41 92.766H156.09V76.0653H152.41V86.6772Z" fill="#F5EB10"/>
<path d="M114.82 17.3606L111.181 3.66529L97.6128 0L101.252 13.6953L114.82 17.3606Z" fill="#F5EB10"/>
<path d="M100.068 14.0133L96.4355 0.31794L86.5 10.342L90.1329 24.0314L100.068 14.0133Z" fill="#F5EB10"/>
<path d="M100.931 14.8831L91.001 24.9012L104.569 28.5725L114.505 18.5484L100.931 14.8831Z" fill="#F5EB10"/>
<path d="M75.3872 0L61.8188 3.66529L58.1799 17.3546L71.7483 13.6953L75.3872 0Z" fill="#F5EB10"/>
<path d="M72.0635 14.8831L58.4951 18.5484L68.4306 28.5725L81.999 24.9012L72.0635 14.8831Z" fill="#F5EB10"/>
<path d="M82.8612 24.0314L86.5 10.342L76.5645 0.31794L72.9316 14.0133L82.8612 24.0314Z" fill="#F5EB10"/>
<path d="M72.0695 42.2618L81.999 32.2438L68.4306 28.5725L58.4951 38.5965L72.0695 42.2618Z" fill="#F5EB10"/>
<path d="M82.8612 33.1136L72.9316 43.1377L76.5645 56.827L86.5 46.8029L82.8612 33.1136Z" fill="#F5EB10"/>
<path d="M75.3872 57.1509V57.1449L71.7483 43.4556L58.1799 39.7903L61.8188 53.4797L75.3872 57.1509Z" fill="#F5EB10"/>
<path d="M100.93 42.2618L114.505 38.5965L104.569 28.5725L90.9949 32.2438L100.93 42.2618Z" fill="#F5EB10"/>
<path d="M100.068 43.1317L90.1329 33.1136L86.5 46.8029L96.4355 56.827L100.068 43.1317Z" fill="#F5EB10"/>
<path d="M101.252 43.4556L97.6128 57.1449V57.1509L111.181 53.4797L114.82 39.7903L101.252 43.4556Z" fill="#F5EB10"/>
</g>
<defs>
<clipPath id="clip0_33_655">
<rect width="173" height="93" fill="white"/>
</clipPath>
</defs>
</svg>
