<svg width="225" height="101" viewBox="0 0 225 101" fill="none" xmlns="http://www.w3.org/2000/svg">
<g clip-path="url(#clip0_5_75)">
<path d="M101.811 30.6823L77.415 24.1999L70.8801 0L95.2688 6.48237L101.811 30.6823Z" fill="#F5EB10"/>
<path d="M68.763 0.55957L75.2979 24.7595L57.4368 42.4697L50.9019 18.2771L68.763 0.55957Z" fill="#F5EB10"/>
<path d="M101.247 32.7825L83.386 50.5L58.9973 44.0104L76.8511 26.3001L101.247 32.7825Z" fill="#F5EB10"/>
<path d="M30.9236 0L24.3887 24.1999L0 30.675L6.53491 6.48237L30.9236 0Z" fill="#F5EB10"/>
<path d="M42.814 44.0104L18.4253 50.5L0.571533 32.7825L24.9602 26.3001L42.814 44.0104Z" fill="#F5EB10"/>
<path d="M44.367 42.4697L26.5132 24.7595L33.0481 0.566849L50.9019 18.2771L44.367 42.4697Z" fill="#F5EB10"/>
<path d="M42.814 56.9824L24.9602 74.6926L0.571533 68.2175L18.4253 50.5L42.814 56.9824Z" fill="#F5EB10"/>
<path d="M50.9021 82.7156L33.0483 100.433L26.5134 76.2333L44.3672 58.523L50.9021 82.7156Z" fill="#F5EB10"/>
<path d="M30.9236 100.993V101L6.53491 94.5176L0 70.325V70.3177L24.3887 76.8001L30.9236 100.993Z" fill="#F5EB10"/>
<path d="M101.247 68.2175L76.8438 74.6926L58.99 56.9824L83.386 50.5L101.247 68.2175Z" fill="#F5EB10"/>
<path d="M75.2905 76.2333L68.763 100.433L50.9019 82.7156L57.4368 58.523L75.2905 76.2333Z" fill="#F5EB10"/>
<path d="M101.811 70.3177L95.2688 94.5176L70.8801 101V100.993L77.415 76.8001L101.811 70.3177Z" fill="#F5EB10"/>
<path d="M136.581 28.255H143.335L144.31 30.9221H148.171L142.192 14.8106H137.76L131.811 30.9221H135.606L136.581 28.255ZM139.02 21.511C139.533 20.1738 139.899 19.1855 139.929 19.1637H140.002C140.002 19.1637 140.398 20.1956 140.91 21.5328L142.068 24.7304H137.87L139.028 21.511H139.02Z" fill="#F5EB10"/>
<path d="M159.321 14.8106H155.423V30.9221H159.321V14.8106Z" fill="#F5EB10"/>
<path d="M140.097 49.6497H140.024L135.943 42.4479H131.811V58.5594H135.709V54.6278C135.709 50.8052 135.665 48.923 135.665 48.8939H135.738C135.738 48.8939 136.529 50.3692 137.343 51.7936L138.918 54.5769H141.101L142.676 51.75C143.467 50.3692 144.251 48.9157 144.28 48.8939H144.324C144.324 48.8939 144.28 50.8052 144.28 54.6278V58.5594H148.178V42.4479H144.214L140.104 49.6497H140.097Z" fill="#F5EB10"/>
<path d="M159.321 42.4479H155.423V58.5594H159.321V42.4479Z" fill="#F5EB10"/>
<path d="M174.127 55.2164C171.621 55.2164 169.834 53.356 169.834 50.5C169.834 47.644 171.504 45.7618 174.149 45.7618C175.885 45.7618 177.211 46.5248 178.046 47.8111L181.9 46.7792C180.808 44.1775 178.068 42.1281 174.339 42.1281C169.489 42.1281 165.914 45.5583 165.914 50.4564C165.914 55.3545 169.489 58.8791 174.339 58.8791C177.863 58.8791 180.86 56.9242 182.068 53.792L178.237 52.7819C177.585 54.1191 176.266 55.2237 174.127 55.2237V55.2164Z" fill="#F5EB10"/>
<path d="M192.516 53.2397H194.252L197.292 58.5594H201.908L198.193 52.484C200.164 51.75 201.256 50.1148 201.256 47.9056C201.256 44.5699 198.867 42.4479 194.787 42.4479H188.618V58.5594H192.516V53.2397ZM192.516 45.9434H195.021C196.53 45.9434 197.27 46.7501 197.27 48.08C197.27 49.4099 196.479 50.1512 195.043 50.1512H192.516V45.9362V45.9434Z" fill="#F5EB10"/>
<path d="M215.915 42.1209C210.948 42.1209 207.351 45.5728 207.351 50.5C207.351 55.4272 210.948 58.8791 215.915 58.8791C220.882 58.8791 224.472 55.4272 224.472 50.5C224.472 45.5728 220.875 42.1209 215.915 42.1209ZM215.915 55.2164C213.227 55.2164 211.271 53.3778 211.271 50.5C211.271 47.6222 213.219 45.7618 215.915 45.7618C218.611 45.7618 220.553 47.6004 220.553 50.5C220.553 53.3996 218.604 55.2164 215.915 55.2164Z" fill="#F5EB10"/>
<path d="M140.097 77.2797H140.024L135.943 70.0779H131.811V86.1894H135.709V82.2578C135.709 78.4352 135.665 76.553 135.665 76.524H135.738C135.738 76.524 136.529 77.9992 137.343 79.4236L138.918 82.2069H141.101L142.676 79.3727C143.467 77.9919 144.251 76.5458 144.28 76.5167H144.324C144.324 76.5167 144.28 78.428 144.28 82.2505V86.1821H148.178V70.0706H144.214L140.104 77.2725L140.097 77.2797Z" fill="#F5EB10"/>
<path d="M159.321 70.0779H155.423V86.1894H159.321V70.0779Z" fill="#F5EB10"/>
<path d="M177.468 75.6664C177.468 77.4178 177.49 79.489 177.49 79.5108H177.416L170.508 70.0779H166.566V86.1894H170.464V80.6663C170.464 78.5733 170.42 76.5894 170.42 76.5676H170.493L177.409 86.1894H181.373V70.0779H177.475V75.6737L177.468 75.6664Z" fill="#F5EB10"/>
<path d="M193.351 70.0779H188.618V86.1894H193.373C198.171 86.1894 201.908 83.079 201.908 78.2027C201.908 73.3264 198.193 70.0779 193.351 70.0779ZM193.146 82.5921H192.516V73.6607H193.146C195.556 73.6607 197.996 75.0414 197.996 78.1954C197.996 81.3494 195.556 82.5921 193.146 82.5921Z" fill="#F5EB10"/>
</g>
<defs>
<clipPath id="clip0_5_75">
<rect width="224.472" height="101" fill="white"/>
</clipPath>
</defs>
</svg>
