<svg width="21" height="21" viewBox="0 0 21 21" fill="none" xmlns="http://www.w3.org/2000/svg">
<g clip-path="url(#clip0_155_148)">
<path d="M16.1051 10.1253V15.1253C16.1051 15.3463 16.0173 15.5583 15.861 15.7146C15.7047 15.8708 15.4927 15.9586 15.2717 15.9586C15.0507 15.9586 14.8388 15.8708 14.6825 15.7146C14.5262 15.5583 14.4384 15.3463 14.4384 15.1253V10.1253C14.4384 9.90429 14.5262 9.69233 14.6825 9.53605C14.8388 9.37977 15.0507 9.29197 15.2717 9.29197C15.4927 9.29197 15.7047 9.37977 15.861 9.53605C16.0173 9.69233 16.1051 9.90429 16.1051 10.1253ZM9.92173 5.7228L12.4809 14.9136C12.5399 15.1242 12.5129 15.3495 12.4057 15.5401C12.3527 15.6344 12.2816 15.7174 12.1965 15.7843C12.1113 15.8512 12.0139 15.9007 11.9096 15.9299C11.6991 15.9889 11.4738 15.9619 11.2832 15.8547C11.0926 15.7476 10.9524 15.5692 10.8934 15.3586L10.3576 13.4586H6.01923L5.4834 15.3586C5.41775 15.5614 5.27618 15.7309 5.08836 15.8316C4.90055 15.9323 4.68104 15.9564 4.47584 15.8989C4.27063 15.8414 4.09565 15.7067 3.98754 15.523C3.87943 15.3393 3.84659 15.121 3.8959 14.9136L6.47173 5.65697C6.52958 5.40687 6.64147 5.17247 6.79954 4.9702C6.9576 4.76794 7.15802 4.60272 7.38673 4.48614C7.86006 4.2428 8.40339 4.2278 8.91923 4.44447C9.40839 4.64947 9.78339 5.1253 9.92256 5.72364L9.92173 5.7228ZM9.88756 11.792L8.28006 6.09614C8.25589 6.00114 8.12089 6.00114 8.09756 6.09614L6.49006 11.792H9.88756ZM19.4392 8.45864C19.2182 8.45864 19.0063 8.54644 18.85 8.70272C18.6937 8.859 18.6059 9.07096 18.6059 9.29197V15.9586C18.6059 17.337 17.4842 18.4586 16.1059 18.4586H4.4384C3.06006 18.4586 1.9384 17.337 1.9384 15.9586V4.29197C1.9384 2.91364 3.06006 1.79197 4.4384 1.79197H11.1051C11.3261 1.79197 11.538 1.70417 11.6943 1.54789C11.8506 1.39161 11.9384 1.17965 11.9384 0.958638C11.9384 0.737624 11.8506 0.525663 11.6943 0.369382C11.538 0.213102 11.3261 0.125305 11.1051 0.125305L4.4384 0.125305C2.1409 0.125305 0.271729 1.99447 0.271729 4.29197V15.9586C0.271729 18.2561 2.1409 20.1253 4.4384 20.1253H16.1051C18.4026 20.1253 20.2717 18.2561 20.2717 15.9586V9.29197C20.2717 9.07096 20.1839 8.859 20.0277 8.70272C19.8714 8.54644 19.6594 8.45864 19.4384 8.45864H19.4392ZM13.7309 4.44197L15.2876 5.0978L15.9084 6.65197C15.9735 6.81703 16.0868 6.95868 16.2334 7.05851C16.3801 7.15834 16.5535 7.21172 16.7309 7.21172C16.9083 7.21172 17.0817 7.15834 17.2283 7.05851C17.375 6.95868 17.4883 6.81703 17.5534 6.65197L18.1709 5.10697L19.7159 4.48947C19.881 4.42437 20.0226 4.31111 20.1224 4.16442C20.2223 4.01773 20.2756 3.84441 20.2756 3.66697C20.2756 3.48954 20.2223 3.31621 20.1224 3.16952C20.0226 3.02283 19.881 2.90957 19.7159 2.84447L18.1709 2.22697L17.5534 0.681971C17.4872 0.517973 17.3734 0.377506 17.2268 0.278593C17.0802 0.17968 16.9073 0.126833 16.7305 0.126833C16.5536 0.126833 16.3808 0.17968 16.2341 0.278593C16.0875 0.377506 15.9738 0.517973 15.9076 0.681971L15.2934 2.2178L13.7601 2.79864C13.5947 2.86147 13.4519 2.97238 13.3501 3.11709C13.2483 3.2618 13.1922 3.43368 13.1889 3.61057C13.1857 3.78747 13.2355 3.96128 13.332 4.10961C13.4284 4.25793 13.5671 4.37398 13.7301 4.4428L13.7309 4.44197Z" fill="#F5EB10"/>
</g>
<defs>
<clipPath id="clip0_155_148">
<rect width="20" height="20" fill="white" transform="translate(0.25 0.125305)"/>
</clipPath>
</defs>
</svg>
