<svg width="40" height="40" viewBox="0 0 40 40" fill="none" xmlns="http://www.w3.org/2000/svg">
<rect width="40" height="40" rx="20" fill="#F2F3F5"/>
<g clip-path="url(#clip0_50_340)">
<path d="M20.0002 26.6667C21.7677 26.6647 23.4622 25.9617 24.712 24.7119C25.9618 23.462 26.6648 21.7675 26.6668 20V16.6667C26.6668 14.8986 25.9645 13.2029 24.7142 11.9526C23.464 10.7024 21.7683 10 20.0002 10C18.2321 10 16.5364 10.7024 15.2861 11.9526C14.0359 13.2029 13.3335 14.8986 13.3335 16.6667V20C13.3355 21.7675 14.0385 23.462 15.2883 24.7119C16.5381 25.9617 18.2327 26.6647 20.0002 26.6667ZM20.0002 11.6667C21.1806 11.6689 22.3223 12.0882 23.2235 12.8507C24.1247 13.6131 24.7274 14.6695 24.9252 15.8333H22.5002C22.2791 15.8333 22.0672 15.9211 21.9109 16.0774C21.7546 16.2337 21.6668 16.4457 21.6668 16.6667C21.6668 16.8877 21.7546 17.0996 21.9109 17.2559C22.0672 17.4122 22.2791 17.5 22.5002 17.5H25.0002V19.1667H22.5002C22.2791 19.1667 22.0672 19.2545 21.9109 19.4107C21.7546 19.567 21.6668 19.779 21.6668 20C21.6668 20.221 21.7546 20.433 21.9109 20.5893C22.0672 20.7455 22.2791 20.8333 22.5002 20.8333H24.9252C24.7293 21.9979 24.1271 23.0554 23.2255 23.8181C22.3238 24.5807 21.1811 24.9992 20.0002 24.9992C18.8192 24.9992 17.6765 24.5807 16.7749 23.8181C15.8732 23.0554 15.271 21.9979 15.0752 20.8333H17.5002C17.7212 20.8333 17.9331 20.7455 18.0894 20.5893C18.2457 20.433 18.3335 20.221 18.3335 20C18.3335 19.779 18.2457 19.567 18.0894 19.4107C17.9331 19.2545 17.7212 19.1667 17.5002 19.1667H15.0002V17.5H17.5002C17.7212 17.5 17.9331 17.4122 18.0894 17.2559C18.2457 17.0996 18.3335 16.8877 18.3335 16.6667C18.3335 16.4457 18.2457 16.2337 18.0894 16.0774C17.9331 15.9211 17.7212 15.8333 17.5002 15.8333H15.0752C15.2729 14.6695 15.8756 13.6131 16.7768 12.8507C17.678 12.0882 18.8197 11.6689 20.0002 11.6667Z" fill="#010101"/>
<path d="M29.1667 20C28.9457 20 28.7337 20.0878 28.5774 20.2441C28.4211 20.4004 28.3333 20.6123 28.3333 20.8333C28.3311 22.8218 27.5402 24.7282 26.1342 26.1342C24.7282 27.5402 22.8218 28.3311 20.8333 28.3333H19.1667C17.1783 28.3309 15.272 27.54 13.866 26.134C12.46 24.728 11.6691 22.8217 11.6667 20.8333C11.6667 20.6123 11.5789 20.4004 11.4226 20.2441C11.2663 20.0878 11.0543 20 10.8333 20C10.6123 20 10.4004 20.0878 10.2441 20.2441C10.0878 20.4004 10 20.6123 10 20.8333C10.0029 23.2636 10.9696 25.5935 12.688 27.312C14.4065 29.0304 16.7364 29.9971 19.1667 30H20.8333C23.2636 29.9971 25.5935 29.0304 27.312 27.312C29.0304 25.5935 29.9971 23.2636 30 20.8333C30 20.6123 29.9122 20.4004 29.7559 20.2441C29.5996 20.0878 29.3877 20 29.1667 20Z" fill="#010101"/>
</g>
<defs>
<clipPath id="clip0_50_340">
<rect width="20" height="20" fill="white" transform="translate(10 10)"/>
</clipPath>
</defs>
</svg>
