<svg width="40" height="40" viewBox="0 0 40 40" fill="none" xmlns="http://www.w3.org/2000/svg">
<rect width="40" height="40" rx="20" fill="#F5EB10"/>
<g clip-path="url(#clip0_44_1334)">
<path d="M29.266 10.735C28.9673 10.4326 28.5956 10.2124 28.1868 10.0956C27.7781 9.97881 27.3461 9.96942 26.9327 10.0683L13.5994 12.8767C12.8315 12.982 12.1083 13.2996 11.5112 13.7937C10.9141 14.2878 10.4668 14.9388 10.2197 15.6734C9.97258 16.408 9.93546 17.197 10.1125 17.9515C10.2896 18.706 10.6738 19.3962 11.2219 19.9442L12.6535 21.375C12.731 21.4525 12.7925 21.5444 12.8344 21.6457C12.8763 21.7469 12.8978 21.8554 12.8977 21.965V24.605C12.8996 24.9762 12.985 25.3422 13.1477 25.6758L13.141 25.6817L13.1627 25.7033C13.4069 26.1943 13.8057 26.5913 14.2977 26.8333L14.3194 26.855L14.3252 26.8483C14.6588 27.011 15.0249 27.0965 15.396 27.0983H18.036C18.2569 27.0982 18.4688 27.1857 18.6252 27.3417L20.056 28.7725C20.4398 29.1605 20.8966 29.4687 21.4 29.6794C21.9035 29.8901 22.4436 29.999 22.9894 30C23.4442 29.9994 23.8959 29.9251 24.3269 29.78C25.0547 29.541 25.7014 29.1033 26.1937 28.5164C26.6861 27.9295 27.0047 27.2167 27.1135 26.4583L29.926 13.0958C30.0301 12.6789 30.024 12.242 29.9082 11.8281C29.7925 11.4142 29.5712 11.0375 29.266 10.735ZM13.8335 20.1983L12.401 18.7675C12.0675 18.442 11.8337 18.028 11.7271 17.5743C11.6205 17.1205 11.6456 16.6458 11.7994 16.2058C11.9485 15.7544 12.224 15.3553 12.5934 15.056C12.9627 14.7567 13.4102 14.5698 13.8827 14.5175L27.0835 11.7383L14.5627 24.2608V21.965C14.564 21.6369 14.5002 21.3119 14.375 21.0086C14.2499 20.7054 14.0658 20.43 13.8335 20.1983ZM25.476 26.1733C25.4121 26.6336 25.2211 27.0669 24.9245 27.4247C24.6279 27.7824 24.2374 28.0504 23.797 28.1986C23.3565 28.3468 22.8835 28.3693 22.431 28.2635C21.9785 28.1578 21.5644 27.928 21.2352 27.6L19.8019 26.1667C19.5705 25.934 19.2953 25.7496 18.9922 25.624C18.6891 25.4984 18.3641 25.4342 18.036 25.435H15.7402L28.2627 12.9167L25.476 26.1733Z" fill="#010101"/>
</g>
<defs>
<clipPath id="clip0_44_1334">
<rect width="20" height="20" fill="white" transform="translate(10 10)"/>
</clipPath>
</defs>
</svg>
