<svg width="20" height="20" viewBox="0 0 20 20" fill="none" xmlns="http://www.w3.org/2000/svg">
<g clip-path="url(#clip0_33_1004)">
<path d="M7.00417 11.3017L6.7425 14.3509C6.71667 14.7175 6.46167 15 6.15417 15C5.95083 15 5.76167 14.8742 5.65333 14.6667L4.96083 13.3334L4.26833 14.6667C4.16083 14.8742 3.97167 15 3.7675 15C3.46083 15 3.205 14.7175 3.17917 14.3509L2.9175 11.3017C2.91285 11.2453 2.91936 11.1885 2.93665 11.1346C2.95394 11.0807 2.98168 11.0308 3.01828 10.9876C3.05488 10.9444 3.09963 10.9088 3.14997 10.883C3.20031 10.8571 3.25525 10.8414 3.31167 10.8367C3.36808 10.8321 3.42486 10.8386 3.47876 10.8559C3.53266 10.8731 3.58262 10.9009 3.6258 10.9375C3.66898 10.9741 3.70453 11.0188 3.73041 11.0692C3.7563 11.1195 3.77202 11.1745 3.77667 11.2309L3.95333 13.465L4.57833 12.2625C4.61466 12.1925 4.66955 12.1337 4.73701 12.0927C4.80446 12.0517 4.88189 12.03 4.96083 12.03C5.03978 12.03 5.1172 12.0517 5.18466 12.0927C5.25211 12.1337 5.307 12.1925 5.34333 12.2625L5.96833 13.465L6.14333 11.2309C6.15192 11.1227 6.20094 11.0217 6.28063 10.9481C6.36031 10.8744 6.46482 10.8335 6.57333 10.8334H6.575C6.8275 10.8334 7.02583 11.05 7.00417 11.3017ZM11.575 10.8334H11.1742L10.9683 13.465L10.3433 12.2625C10.307 12.1925 10.2521 12.1337 10.1847 12.0927C10.1172 12.0517 10.0398 12.03 9.96083 12.03C9.88189 12.03 9.80446 12.0517 9.73701 12.0927C9.66955 12.1337 9.61466 12.1925 9.57833 12.2625L8.95333 13.465L8.77667 11.2309C8.775 11.1723 8.76141 11.1146 8.73672 11.0614C8.71203 11.0082 8.67676 10.9606 8.63306 10.9215C8.58936 10.8824 8.53816 10.8526 8.48256 10.8339C8.42697 10.8152 8.36815 10.8081 8.30971 10.8129C8.25126 10.8177 8.19441 10.8344 8.14262 10.8619C8.09083 10.8895 8.0452 10.9272 8.0085 10.973C7.97179 11.0187 7.9448 11.0715 7.92915 11.128C7.91351 11.1845 7.90954 11.2436 7.9175 11.3017L8.17917 14.3509C8.205 14.7175 8.46 15 8.7675 15C8.97083 15 9.16 14.8742 9.26833 14.6667L9.96083 13.3334L10.6533 14.6667C10.7608 14.8742 10.95 15 11.1542 15C11.4608 15 11.7167 14.7175 11.7425 14.3509L12.0042 11.3017C12.0094 11.2422 12.0021 11.1823 11.9829 11.1257C11.9637 11.0691 11.933 11.0172 11.8926 10.9731C11.8522 10.9291 11.8032 10.8939 11.7485 10.8699C11.6938 10.8458 11.6347 10.8334 11.575 10.8334ZM16.575 10.8334H16.5733C16.4648 10.8335 16.3603 10.8744 16.2806 10.9481C16.2009 11.0217 16.1519 11.1227 16.1433 11.2309L15.9683 13.465L15.3433 12.2625C15.307 12.1925 15.2521 12.1337 15.1847 12.0927C15.1172 12.0517 15.0398 12.03 14.9608 12.03C14.8819 12.03 14.8045 12.0517 14.737 12.0927C14.6696 12.1337 14.6147 12.1925 14.5783 12.2625L13.9533 13.465L13.7767 11.2309C13.775 11.1723 13.7614 11.1146 13.7367 11.0614C13.712 11.0082 13.6768 10.9606 13.6331 10.9215C13.5894 10.8824 13.5382 10.8526 13.4826 10.8339C13.427 10.8152 13.3682 10.8081 13.3097 10.8129C13.2513 10.8177 13.1944 10.8344 13.1426 10.8619C13.0908 10.8895 13.0452 10.9272 13.0085 10.973C12.9718 11.0187 12.9448 11.0715 12.9292 11.128C12.9135 11.1845 12.9095 11.2436 12.9175 11.3017L13.1792 14.3509C13.205 14.7175 13.46 15 13.7675 15C13.9708 15 14.16 14.8742 14.2683 14.6667L14.9608 13.3334L15.6533 14.6667C15.7608 14.8742 15.95 15 16.1542 15C16.4608 15 16.7167 14.7175 16.7425 14.3509L17.0042 11.3017C17.0094 11.2422 17.0021 11.1823 16.9829 11.1257C16.9637 11.0691 16.933 11.0172 16.8926 10.9731C16.8522 10.9291 16.8032 10.8939 16.7485 10.8699C16.6938 10.8458 16.6347 10.8334 16.575 10.8334ZM3.75 5.83337C3.91421 5.83332 4.0768 5.80092 4.22848 5.73803C4.38017 5.67514 4.51798 5.58299 4.63406 5.46684C4.75013 5.35069 4.84219 5.21281 4.90498 5.06109C4.96777 4.90936 5.00005 4.74675 5 4.58254C4.99995 4.41833 4.96755 4.25575 4.90466 4.10406C4.84177 3.95237 4.74962 3.81456 4.63347 3.69848C4.51732 3.58241 4.37944 3.49035 4.22771 3.42756C4.07598 3.36477 3.91337 3.33249 3.74917 3.33254C3.41754 3.33265 3.09953 3.4645 2.86511 3.69907C2.63069 3.93365 2.49906 4.25174 2.49917 4.58337C2.49928 4.91501 2.63112 5.23301 2.8657 5.46743C3.10028 5.70185 3.41837 5.83348 3.75 5.83337ZM7.08333 5.83337C7.24754 5.83332 7.41013 5.80092 7.56182 5.73803C7.7135 5.67514 7.85132 5.58299 7.96739 5.46684C8.08346 5.35069 8.17552 5.21281 8.23831 5.06109C8.3011 4.90936 8.33339 4.74675 8.33333 4.58254C8.33328 4.41833 8.30088 4.25575 8.23799 4.10406C8.1751 3.95237 8.08295 3.81456 7.9668 3.69848C7.85065 3.58241 7.71277 3.49035 7.56105 3.42756C7.40932 3.36477 7.24671 3.33249 7.0825 3.33254C6.75087 3.33265 6.43286 3.4645 6.19844 3.69907C5.96402 3.93365 5.83239 4.25174 5.8325 4.58337C5.83261 4.91501 5.96446 5.23301 6.19903 5.46743C6.43361 5.70185 6.7517 5.83348 7.08333 5.83337ZM20 5.00004V15C20 17.2975 18.1308 19.1667 15.8333 19.1667H4.16667C1.86917 19.1667 0 17.2975 0 15V5.00004C0 2.70254 1.86917 0.833374 4.16667 0.833374H15.8333C18.1308 0.833374 20 2.70254 20 5.00004ZM1.66667 5.00004V6.66671H18.3333V5.00004C18.3333 3.62171 17.2117 2.50004 15.8333 2.50004H4.16667C2.78833 2.50004 1.66667 3.62171 1.66667 5.00004ZM18.3333 15V8.33337H1.66667V15C1.66667 16.3784 2.78833 17.5 4.16667 17.5H15.8333C17.2117 17.5 18.3333 16.3784 18.3333 15Z" fill="#222222"/>
</g>
<defs>
<clipPath id="clip0_33_1004">
<rect width="20" height="20" fill="white"/>
</clipPath>
</defs>
</svg>
